<?xml version="1.0" encoding="UTF-8" standalone="no"?>
<!-- Created with Inkscape (http://www.inkscape.org/) -->

<svg
   xmlns:dc="http://purl.org/dc/elements/1.1/"
   xmlns:cc="http://creativecommons.org/ns#"
   xmlns:rdf="http://www.w3.org/1999/02/22-rdf-syntax-ns#"
   xmlns:svg="http://www.w3.org/2000/svg"
   xmlns="http://www.w3.org/2000/svg"
   xmlns:sodipodi="http://sodipodi.sourceforge.net/DTD/sodipodi-0.dtd"
   xmlns:inkscape="http://www.inkscape.org/namespaces/inkscape"
   version="1.1"
   id="svg4485"
   width="128"
   height="128"
   viewBox="0 0 128 128"
   sodipodi:docname="GMBinder Icon.svg"
   inkscape:version="0.92.1 r15371">
  <metadata
     id="metadata4491">
    <rdf:RDF>
      <cc:Work
         rdf:about="">
        <dc:format>image/svg+xml</dc:format>
        <dc:type
           rdf:resource="http://purl.org/dc/dcmitype/StillImage" />
        <dc:title></dc:title>
      </cc:Work>
    </rdf:RDF>
  </metadata>
  <defs
     id="defs4489" />
  <sodipodi:namedview
     pagecolor="#ffffff"
     bordercolor="#666666"
     borderopacity="1"
     objecttolerance="10"
     gridtolerance="10"
     guidetolerance="10"
     inkscape:pageopacity="0"
     inkscape:pageshadow="2"
     inkscape:window-width="1920"
     inkscape:window-height="1017"
     id="namedview4487"
     showgrid="false"
     inkscape:zoom="2.3478155"
     inkscape:cx="35.405825"
     inkscape:cy="118.83566"
     inkscape:window-x="-8"
     inkscape:window-y="-8"
     inkscape:window-maximized="1"
     inkscape:current-layer="svg4485" />
  <path
     style="fill:#000000;stroke-width:1.33333337"
     d="M 0,108 V 88 h 64 64 v 20 20 H 64 0 Z M 59.333333,83.369087 C 58.6,83.061228 46,81.224621 31.333333,79.287739 16.666667,77.350855 4.4462165,75.548303 4.1767776,75.282067 3.9073387,75.015829 6.17285,70.268449 9.2112472,64.732333 12.249645,59.196216 14.477117,54.666667 14.161188,54.666667 c -0.315929,0 -3.388464,4.8 -6.8278547,10.666666 C 3.8939431,71.2 0.34750808,76.188235 0.05053652,76.188235 -0.24643504,76.188235 0,58.9 0,38 V 0 h 64 64 v 38 c 0,20.9 0.57865,38.106482 0.24474,38.106482 -0.33392,0 -3.95416,-4.306482 -7.00382,-9.439815 -7.01608,-11.809822 -8.42297,-12.22875 -1.90079,-0.565998 2.69664,4.822035 4.69828,8.968098 4.44809,9.213472 -0.43627,0.427872 -44.695691,6.592592 -57.121553,7.956235 -3.3,0.362149 -6.6,0.406569 -7.333334,0.09871 z M 61.333333,64 V 52 h -10 c -8.973206,0 -10,0.262933 -10,2.560727 0,1.761129 1.249015,2.835056 4,3.439273 2.833351,0.622308 4,1.663597 4,3.570189 0,2.513927 -0.550206,2.629083 -8.333333,1.744128 -4.583333,-0.521132 -8.601432,-1.198144 -8.929109,-1.504469 -0.327678,-0.306325 0.519776,-3.838856 1.883229,-7.850068 l 2.479005,-7.293113 h 12.450104 c 11.561215,0 12.450104,-0.19039 12.450104,-2.666667 0,-2.521803 -0.888889,-2.666667 -16.362694,-2.666667 H 28.607945 L 21.56882,55.487069 C 17.697301,63.271624 14.710513,69.781264 14.931513,69.952936 15.354,70.28112 54.977851,75.579473 59,75.845609 61.060819,75.981968 61.333333,74.598499 61.333333,64 Z M 77.67228,74.666667 c 2.509268,0 2.618651,-0.589683 1.793124,-9.666667 l -0.879156,-9.666667 5.421171,5.666096 5.42117,5.666096 L 92.20402,60.332763 94.979452,54 l 2.451557,8.496839 c 1.348356,4.673261 2.659481,8.704768 2.913621,8.958902 1.0927,1.092699 10.31429,-1.27627 10.23847,-2.630197 -0.046,-0.820716 -2.33059,-7.192211 -5.07693,-14.158877 -4.94474,-12.543311 -5.04059,-12.670654 -9.842841,-13.0761 -4.246081,-0.35849 -5.111744,0.09773 -6.957309,3.666666 -2.621721,5.06985 -3.463209,5.078791 -7.161859,0.0761 -2.518776,-3.406826 -3.841169,-4 -8.91741,-4 h -5.960084 v 17.5 17.5 L 70.833333,75.5 C 73.125,75.041667 76.202527,74.666667 77.67228,74.666667 Z"
     id="path6287"
     inkscape:connector-curvature="0"
     sodipodi:nodetypes="ccccccccccscssssscccsssssscscssssscscssscscsssscccccscccsssscccss" />
</svg>
