<?xml version="1.0" encoding="UTF-8" standalone="no"?>
<!-- Created with Inkscape (http://www.inkscape.org/) -->

<svg
   xmlns:dc="http://purl.org/dc/elements/1.1/"
   xmlns:cc="http://creativecommons.org/ns#"
   xmlns:rdf="http://www.w3.org/1999/02/22-rdf-syntax-ns#"
   xmlns:svg="http://www.w3.org/2000/svg"
   xmlns="http://www.w3.org/2000/svg"
   xmlns:sodipodi="http://sodipodi.sourceforge.net/DTD/sodipodi-0.dtd"
   xmlns:inkscape="http://www.inkscape.org/namespaces/inkscape"
   version="1.1"
   id="svg4485"
   width="293.62549"
   height="291.32486"
   viewBox="0 0 293.62549 291.32486"
   sodipodi:docname="Tableau Icon.svg"
   inkscape:version="0.92.1 r15371">
  <metadata
     id="metadata4491">
    <rdf:RDF>
      <cc:Work
         rdf:about="">
        <dc:format>image/svg+xml</dc:format>
        <dc:type
           rdf:resource="http://purl.org/dc/dcmitype/StillImage" />
        <dc:title></dc:title>
      </cc:Work>
    </rdf:RDF>
  </metadata>
  <defs
     id="defs4489" />
  <sodipodi:namedview
     pagecolor="#ffffff"
     bordercolor="#666666"
     borderopacity="1"
     objecttolerance="10"
     gridtolerance="10"
     guidetolerance="10"
     inkscape:pageopacity="0"
     inkscape:pageshadow="2"
     inkscape:window-width="1920"
     inkscape:window-height="1017"
     id="namedview4487"
     showgrid="false"
     inkscape:zoom="2.0034692"
     inkscape:cx="87.016109"
     inkscape:cy="162.10535"
     inkscape:window-x="-8"
     inkscape:window-y="-8"
     inkscape:window-maximized="1"
     inkscape:current-layer="svg4485" />
  <path
     style="fill:#000000"
     d="M 133.31275,291.00905 C 111.92506,288.71791 88.22141,281.03634 71.499854,270.97754 32.495351,247.51451 6.6647989,208.45062 0.72937685,163.9504 -0.74686015,152.88246 0.13981185,125.77746 2.2936699,116.13098 8.3614229,88.955331 21.191633,64.711576 39.761088,45.333146 61.257117,22.900656 86.9929,8.6028042 117.83669,1.9572322 c 12.11202,-2.60964295 45.8401,-2.60964295 57.95212,0 30.84378,6.645572 56.57957,20.9434238 78.0756,43.3759138 18.56945,19.37843 31.39966,43.622185 37.46742,70.797834 2.15385,9.64648 3.04053,36.75148 1.56429,47.81942 -8.35007,62.60377 -55.58186,112.60393 -117.78358,124.68714 -10.48347,2.0365 -33.00127,3.31405 -41.79979,2.37151 z m 17.5,-75.33035 v -6.95229 l 6.25,-0.29771 c 6.2497,-0.29771 6.25002,-0.29788 6.56336,-3.54772 l 0.31336,-3.25 h -6.56336 -6.56336 v -7 -7 h -3.5 -3.5 v 7 7 h -6.5 -6.5 v 3.5 3.5 h 6.5 6.5 v 7 7 h 3.5 3.5 z m -41,-19.54772 v -10.5 h 10 10 v -3.5 -3.5 h -10 -10 v -10.56037 -10.56036 l -3.75,0.31036 -3.75,0.31037 -0.28498,10.25 -0.28499,10.25 h -9.46502 -9.465013 v 3.5 3.5 h 9.500003 9.5 v 9.83333 c 0,5.40834 0.3,10.13334 0.66667,10.5 0.36666,0.36667 2.16666,0.66667 4,0.66667 h 3.33333 z m 82,0 v -10.5 h 9.5 9.5 v -3.5 -3.5 h -9.5 -9.5 v -10.5 -10.5 h -4 -4 v 10.46379 10.46379 l -9.75,0.28621 -9.75,0.28621 v 3 3 l 9.75,0.28621 9.75,0.28621 v 10.46379 10.46379 h 4 4 z m -40,-35 v -11.5 h 10.5 10.5 v -4.5 -4.5 h -10.46826 -10.46827 l -0.28173,-11.75 -0.28174,-11.75 -4.25,-0.3075 -4.25,-0.3075 v 12.0575 12.0575 h -11 -11 v 4.5 4.5 h 11 11 v 11.5 11.5 h 4.5 4.5 z m 61,-5.45228 v -6.95229 l 6.25,-0.29771 c 6.2497,-0.29771 6.25002,-0.29788 6.56336,-3.54772 l 0.31336,-3.25 h -6.56336 -6.56336 v -7 -7 h -3.5 -3.5 v 7 7 h -6.56336 -6.56336 l 0.31336,3.25 c 0.31334,3.24984 0.31366,3.25001 6.56336,3.54772 l 6.25,0.29771 v 6.95229 6.95228 h 3.5 3.5 z m -127,-1.04772 v -7 h 6.5 c 6.26667,0 6.5,-0.0897 6.5,-2.5 0,-2.41026 -0.23333,-2.5 -6.5,-2.5 h -6.5 v -7 c 0,-6.8 -0.0714,-7 -2.500003,-7 -2.428571,0 -2.5,0.2 -2.5,7 v 7 h -6.5 c -6.266667,0 -6.5,0.0897 -6.5,2.5 0,2.41026 0.233333,2.5 6.5,2.5 h 6.5 v 7 c 0,6.8 0.07143,7 2.5,7 2.428573,0 2.500003,-0.2 2.500003,-7 z m 24,-33.5 v -10.5 h 10 10 v -3.5 -3.5 h -10 -10 V 93.130981 82.630986 h -3.5 -3.5 v 10.499995 10.499999 h -10 -10.000003 v 3.5 3.5 h 10.000003 10 v 10.5 10.5 h 3.5 3.5 z m 82,0 v -10.5 h 9.5 9.5 v -3.5 -3.5 h -9.5 -9.5 V 93.130981 82.630986 h -4 -4 v 10.463785 10.463789 l -9.75,0.28621 -9.75,0.28621 v 3 3 l 9.75,0.28621 9.75,0.28621 v 10.46379 10.46379 h 4 4 z m -42,-26.452279 v -6.95228 l 6.25,-0.29772 c 5.61352,-0.2674 6.28254,-0.52685 6.56955,-2.547715 0.30357,-2.13743 -0.009,-2.25 -6.25,-2.25 h -6.56955 v -7.5 c 0,-7.29766 -0.0663,-7.5 -2.45619,-7.5 -2.35538,0 -2.46825,0.29757 -2.75,7.25 l -0.29381,7.25 -6.31308,0.29936 c -5.8597,0.27785 -6.2906,0.4574 -6,2.5 0.27899,1.961035 0.99356,2.233055 6.56308,2.498355 l 6.25,0.29772 v 6.95228 c 0,6.749099 0.0731,6.952279 2.5,6.952279 2.42694,0 2.5,-0.20318 2.5,-6.952279 z"
     id="path4497"
     inkscape:connector-curvature="0" />
</svg>
